----------------------------------------------------------------------------------------------
 Analyzed folder: D:\GitHub\Audio\SweetJonny2021\assets\
----------------------------------------------------------------------------------------------
 DR   	   Peak     	   RMS      	 Filename
----------------------------------------------------------------------------------------------

 DR11	  -0.66 dB	 -13.58 dB	 Banger_Racer-mix1_24Jan2021.mp3
 DR10	  -0.90 dB	 -12.67 dB	 Banger_Racer-mix2_14Feb2021.mp3
 DR11	  -0.83 dB	 -13.55 dB	 Banger_Racer-raw_clean_16Jan2021.mp3
 DR11	  -0.93 dB	 -13.90 dB	 Pay_the_Piper-mix1_24Jan2021.mp3
 DR10	  -0.89 dB	 -12.91 dB	 Pay_the_Piper-mix2_14Feb2021.mp3
 DR11	  -0.80 dB	 -13.46 dB	 Pay_the_Piper-raw_clean_16Jan2021.mp3
----------------------------------------------------------------------------------------------

 Number of files:    6
 Official DR value:  DR11 

==============================================================================================
